<?xml version="1.0" encoding="utf-8"?>
<!-- Generator: Adobe Illustrator 23.0.3, SVG Export Plug-In . SVG Version: 6.00 Build 0)  -->
<svg version="1.1" id="Layer_1" xmlns="http://www.w3.org/2000/svg" xmlns:xlink="http://www.w3.org/1999/xlink" x="0px" y="0px"
	 viewBox="0 0 1366 289" style="enable-background:new 0 0 1366 289;" xml:space="preserve">
<style type="text/css">
	.st0{fill:#FF003D;}
	.st1{fill:#636363;}
</style>
<path class="st0" d="M78,104.4v41.2h99.7c16.9,0,25.6-15.4,25.6-30.7c0-15.1-8.4-29.8-25.6-29.8H22.3l15.1-49.7h140.9
	c54.8,0,83.7,41.5,83.7,82.2c0,30.7-16.6,61.4-51.2,72.9l58.1,78.6h-65.6l-50.9-73.8H78V269H22.3V119.4L78,104.4z"/>
<path class="st0" d="M349.3,219.4h170.4L504.6,269H293.6V35.4h226.1l-15.1,49.7H349.3v42.5h144.8v49.7H349.3V219.4z"/>
<path class="st0" d="M608.8,104.7v114.7h87.6c30.7,0,46.7-34.6,46.7-68.6c0-33.1-15.1-65.6-46.7-65.6H553.1l15.1-49.7H703
	c65,0,98.8,59.9,98.8,118.9c0,57.8-32.2,114.7-98.8,114.7H553.1V119.7L608.8,104.7z"/>
<path class="st1" d="M1063.4,35.4V269h-55.7L885.5,114.9V269h-55.7V44.4l55.7-15.1l122.2,154.2V35.4H1063.4z"/>
<path class="st1" d="M1298.3,35.4h64.7l-98.2,115.3L1366,269h-64.7l-76.8-90.6l-76.8,90.6H1083l101.2-118.3L1086,35.4h64.7
	l73.8,87.3L1298.3,35.4z"/>
</svg>
